<?xml version="1.0" encoding="utf-8"?>
<!-- Generator: Adobe Illustrator 16.0.0, SVG Export Plug-In . SVG Version: 6.00 Build 0)  -->
<!DOCTYPE svg PUBLIC "-//W3C//DTD SVG 1.1//EN" "http://www.w3.org/Graphics/SVG/1.1/DTD/svg11.dtd">
<svg version="1.1" id="Layer_1" xmlns="http://www.w3.org/2000/svg" xmlns:xlink="http://www.w3.org/1999/xlink" x="0px" y="0px"
	 width="45px" height="40px" viewBox="0 0 45 40" enable-background="new 0 0 45 40" xml:space="preserve">
<g>
	<path fill="#FFFFFF" d="M10.463,9.816C8.052,12.221-2.489,27.252,6.62,36.355c9.103,9.109,24.131-1.434,26.543-3.844
		c2.41-2.405-0.719-9.444-6.988-15.714C19.907,10.527,12.875,7.398,10.463,9.816z M30.368,30.421
		c-0.712,0.706-6.22-0.981-11.526-6.288c-5.301-5.309-6.994-10.817-6.283-11.528c0.705-0.711,6.22,0.982,11.519,6.29
		C29.386,24.195,31.079,29.709,30.368,30.421z M30.689,13.485c0.55,0,1.1-0.21,1.52-0.629l4.094-4.095c0.84-0.839,0.84-2.2,0-3.038
		c-0.838-0.84-2.2-0.84-3.038,0L29.17,9.817c-0.839,0.838-0.839,2.199,0,3.039C29.589,13.275,30.14,13.485,30.689,13.485z
		 M22.954,8.17c0.333,0.187,0.693,0.274,1.048,0.274c0.752,0,1.482-0.395,1.877-1.099l2.322-4.146
		c0.58-1.036,0.211-2.345-0.824-2.925c-1.035-0.579-2.345-0.21-2.925,0.825l-2.323,4.146C21.549,6.281,21.919,7.59,22.954,8.17z
		 M41.751,14.648c-0.58-1.036-1.89-1.404-2.925-0.825l-4.146,2.323c-1.036,0.58-1.405,1.89-0.825,2.924
		c0.395,0.704,1.125,1.1,1.877,1.1c0.355,0,0.716-0.089,1.048-0.274l4.146-2.323C41.961,16.993,42.33,15.683,41.751,14.648z"/>
</g>
</svg>
