<?xml version="1.0" encoding="utf-8"?>
<!-- Generator: Adobe Illustrator 16.0.0, SVG Export Plug-In . SVG Version: 6.00 Build 0)  -->
<!DOCTYPE svg PUBLIC "-//W3C//DTD SVG 1.1//EN" "http://www.w3.org/Graphics/SVG/1.1/DTD/svg11.dtd">
<svg version="1.1" id="Layer_1" xmlns="http://www.w3.org/2000/svg" xmlns:xlink="http://www.w3.org/1999/xlink" x="0px" y="0px"
	 width="45px" height="40px" viewBox="0 0 45 40" enable-background="new 0 0 45 40" xml:space="preserve">
<g>
	<path fill="#FFFFFF" d="M45,40c0,0-0.089-8.521-0.609-9.403c-0.773-1.315-2.577-2.22-5.926-3.619
		c-3.338-1.395-4.404-2.572-4.404-5.092c0-1.514,1.019-1.019,1.467-3.789c0.186-1.149,1.086-0.019,1.258-2.642
		c0-1.046-0.491-1.306-0.491-1.306s0.249-1.546,0.347-2.738c0.122-1.484-0.748-5.317-5.379-5.317c-4.633,0-5.501,3.833-5.38,5.317
		c0.098,1.192,0.346,2.738,0.346,2.738s-0.49,0.26-0.49,1.306c0.172,2.623,1.071,1.493,1.258,2.642
		c0.447,2.77,1.467,2.275,1.467,3.789c0,1.713-0.495,2.806-1.862,3.769c7.292,3.649,8.271,4.394,8.271,7.657V40H45z M23.003,28.244
		c-4.451-1.86-5.873-3.429-5.873-6.789c0-2.017,1.359-1.358,1.956-5.052c0.247-1.532,1.447-0.025,1.677-3.523
		c0-1.394-0.656-1.741-0.656-1.741s0.334-2.062,0.463-3.651c0.163-1.978-0.996-7.089-7.174-7.089c-6.176,0-7.335,5.111-7.173,7.089
		c0.131,1.588,0.463,3.651,0.463,3.651s-0.656,0.347-0.656,1.741c0.23,3.498,1.43,1.991,1.679,3.523
		c0.596,3.694,1.955,3.035,1.955,5.052c0,3.36-1.422,4.929-5.872,6.789C2.437,28.811,0,29.689,0,31.803V40h31.262
		c0,0,0-4.85,0-6.147C31.262,31.926,27.467,30.111,23.003,28.244z"/>
</g>
</svg>
