<?xml version="1.0" encoding="utf-8"?>
<!-- Generator: Adobe Illustrator 16.0.0, SVG Export Plug-In . SVG Version: 6.00 Build 0)  -->
<!DOCTYPE svg PUBLIC "-//W3C//DTD SVG 1.1//EN" "http://www.w3.org/Graphics/SVG/1.1/DTD/svg11.dtd">
<svg version="1.1" id="Layer_1" xmlns="http://www.w3.org/2000/svg" xmlns:xlink="http://www.w3.org/1999/xlink" x="0px" y="0px"
	 width="45px" height="40px" viewBox="0 0 45 40" enable-background="new 0 0 45 40" xml:space="preserve">
<path fill="#FFFFFF" d="M22.5,0c-11.028,0-20,8.974-20,20c0,11.029,8.972,20,20,20s20-8.971,20-20C42.5,8.974,33.528,0,22.5,0z
	 M39.557,20c0,3.901-1.323,7.5-3.533,10.377c-0.625-0.49-1.289-1.808-0.664-3.175c0.63-1.375,0.795-4.558,0.651-5.796
	c-0.139-1.237-0.781-4.221-2.53-4.25c-1.744-0.026-2.942-0.603-3.98-2.673c-2.152-4.308,4.041-5.134,1.889-7.521
	c-0.604-0.669-3.715,2.758-4.171-1.81c-0.03-0.324,0.282-0.812,0.698-1.32C34.674,6.103,39.557,12.489,39.557,20z M20.156,3.112
	c-0.408,0.794-1.484,1.118-2.14,1.715c-1.424,1.289-2.035,1.111-2.804,2.348c-0.772,1.237-3.264,3.021-3.264,3.915
	c0,0.894,1.259,1.951,1.888,1.745c0.629-0.207,2.287-0.195,3.264,0.147c0.977,0.345,8.155,0.69,5.868,6.758
	c-0.725,1.928-3.901,1.603-4.748,4.799c-0.126,0.468-0.564,2.471-0.595,3.125c-0.053,1.012,0.716,4.83-0.261,4.83
	c-0.98,0-3.619-3.414-3.619-4.033c0-0.618-0.687-2.789-0.687-4.646c0-1.858-3.159-1.828-3.159-4.297
	c0-2.229,1.714-3.336,1.328-4.404c-0.378-1.062-3.39-1.101-4.645-1.228C8.776,8.197,13.937,3.971,20.156,3.112z M17.136,36.187
	c1.023-0.54,1.128-1.239,2.057-1.278c1.063-0.047,1.928-0.414,3.125-0.676c1.063-0.233,2.964-1.312,4.64-1.451
	c1.41-0.114,4.197,0.074,4.948,1.438c-2.7,1.792-5.934,2.838-9.405,2.838C20.625,37.057,18.823,36.749,17.136,36.187z"/>
</svg>
