<?xml version="1.0" encoding="utf-8"?>
<!-- Generator: Adobe Illustrator 16.0.0, SVG Export Plug-In . SVG Version: 6.00 Build 0)  -->
<!DOCTYPE svg PUBLIC "-//W3C//DTD SVG 1.1//EN" "http://www.w3.org/Graphics/SVG/1.1/DTD/svg11.dtd">
<svg version="1.1" id="Layer_1" xmlns="http://www.w3.org/2000/svg" xmlns:xlink="http://www.w3.org/1999/xlink" x="0px" y="0px"
	 width="50px" height="45px" viewBox="0 0 50 45" enable-background="new 0 0 50 45" xml:space="preserve">
<g>
	<path fill="#FFFFFF" d="M24.7,0.002C12.274,0.167,2.336,10.376,2.502,22.802c0.167,12.42,10.375,22.362,22.799,22.196
		c12.422-0.168,22.364-10.376,22.197-22.803C47.332,9.775,37.124-0.165,24.7,0.002z M27.191,7.501c2.289,0,2.966,1.326,2.966,2.842
		c0,1.897-1.518,3.649-4.105,3.649c-2.169,0-3.201-1.089-3.142-2.89C22.91,9.585,24.183,7.501,27.191,7.501z M21.328,36.562
		c-1.561,0-2.708-0.947-1.612-5.119l1.793-7.397c0.312-1.186,0.365-1.659,0-1.659c-0.47,0-2.499,0.817-3.697,1.624l-0.781-1.278
		c3.801-3.177,8.175-5.04,10.05-5.04c1.561,0,1.822,1.85,1.042,4.694l-2.054,7.778c-0.366,1.373-0.208,1.847,0.155,1.847
		c0.471,0,2.007-0.571,3.516-1.756l0.885,1.185C26.928,35.138,22.892,36.562,21.328,36.562z"/>
</g>
</svg>
