<?xml version="1.0" encoding="utf-8"?>
<!-- Generator: Adobe Illustrator 16.0.0, SVG Export Plug-In . SVG Version: 6.00 Build 0)  -->
<!DOCTYPE svg PUBLIC "-//W3C//DTD SVG 1.1//EN" "http://www.w3.org/Graphics/SVG/1.1/DTD/svg11.dtd">
<svg version="1.1" id="Layer_1" xmlns="http://www.w3.org/2000/svg" xmlns:xlink="http://www.w3.org/1999/xlink" x="0px" y="0px"
	 width="52px" height="40px" viewBox="0 0 52 40" enable-background="new 0 0 52 40" xml:space="preserve">
<path fill="#FFFFFF" stroke="#FFFFFF" stroke-miterlimit="10" d="M50.5,32.031c-0.051-0.031-0.107-0.046-0.162-0.071
	c-0.896-10.243-3.18-19.818-8.861-28.444c0.201-1.226-0.336-2.486-1.453-3.125c-1.447-0.828-3.312-0.296-4.161,1.19
	c-0.225,0.395-0.35,0.813-0.396,1.234c-5.123,1.022-10.21,2.574-14.026,6.014c-0.041-0.026-0.076-0.061-0.118-0.085
	c-1.449-0.829-3.312-0.295-4.162,1.19c-0.331,0.579-0.454,1.215-0.403,1.826C10.857,15,5.479,18.994,2.633,25.047
	c-0.893,0.145-1.724,0.672-2.216,1.531C-0.433,28.065,0.052,29.94,1.5,30.77c1.448,0.828,3.312,0.295,4.162-1.191
	c0.032-0.056,0.049-0.116,0.077-0.172c5.736-0.829,9.976,1.953,13.635,6.147c-0.748,1.464-0.262,3.253,1.145,4.057
	c1.446,0.827,3.311,0.294,4.161-1.192c0.212-0.37,0.342-0.765,0.394-1.162c6.376-3.233,13.691-3.177,20.859-2.505
	c-0.012,1.069,0.512,2.105,1.489,2.663c1.447,0.828,3.312,0.296,4.161-1.19C52.434,34.736,51.949,32.859,50.5,32.031z
	 M24.196,19.955c-0.667-2.046-1.565-4.076-2.606-6.083c0.241-0.187,0.447-0.42,0.632-0.677c5.916-0.461,12.72,1.24,16.159,6.859
	c-0.117,0.248-0.2,0.5-0.25,0.759C33.488,20.217,28.79,19.803,24.196,19.955z M36.945,5.772c0.598,0.343,1.263,0.441,1.9,0.348
	c1.317,3.974,1.537,8.085,1.249,12.342c-0.139,0.053-0.272,0.11-0.403,0.183c-3.765-5.821-10.299-8.417-16.879-7.274
	c0-0.367-0.065-0.724-0.19-1.063c3.553-3.28,8.423-4.696,13.237-5.638C36.112,5.113,36.471,5.502,36.945,5.772z M42.645,18.639
	c-0.205-0.117-0.42-0.2-0.639-0.264c0.275-4.244,0.04-8.34-1.176-12.303c4.319,7.177,6.379,14.961,7.337,23.271
	c-1.052-2.526-2.448-4.826-4.269-6.896C44.477,21.034,43.973,19.398,42.645,18.639z M17.513,13.516
	c0.208,0.233,0.444,0.446,0.73,0.609c0.481,0.276,1.009,0.389,1.531,0.378c0.969,1.835,1.817,3.686,2.463,5.55
	c-6.122,0.432-12.01,1.991-17.274,5.609c-0.117-0.096-0.237-0.188-0.371-0.267C7.292,20.018,12.185,16.446,17.513,13.516z
	 M6.017,27.444C6.004,27.379,6,27.313,5.985,27.247c5.09-3.542,10.848-4.995,16.819-5.353c1.061,3.928,1.112,7.919-0.607,11.957
	c-0.522-0.013-1.042,0.104-1.507,0.351C16.718,29.729,12.079,26.77,6.017,27.444z M24.671,35.311c-0.174-0.3-0.396-0.57-0.673-0.797
	c1.799-4.267,1.801-8.514,0.739-12.698c4.523-0.103,9.132,0.351,13.643,0.938c0.253,0.517,0.652,0.964,1.185,1.27
	c1.001,0.572,2.195,0.481,3.121-0.113c2.068,2.433,3.521,5.244,4.521,8.344c-0.241,0.179-0.454,0.4-0.643,0.65
	C39.086,32.174,31.379,32.066,24.671,35.311z"/>
</svg>
