<?xml version="1.0" encoding="utf-8"?>
<!-- Generator: Adobe Illustrator 16.0.0, SVG Export Plug-In . SVG Version: 6.00 Build 0)  -->
<!DOCTYPE svg PUBLIC "-//W3C//DTD SVG 1.1//EN" "http://www.w3.org/Graphics/SVG/1.1/DTD/svg11.dtd">
<svg version="1.1" id="Layer_1" xmlns="http://www.w3.org/2000/svg" xmlns:xlink="http://www.w3.org/1999/xlink" x="0px" y="0px"
	 width="45px" height="40px" viewBox="0 0 45 40" enable-background="new 0 0 45 40" xml:space="preserve">
<path fill="#FFFFFF" d="M38.551,13.398c-3.52-8.187-9.182-14.423-12.047-13.258c-4.866,1.977,2.898,11.474-20.993,21.186
	c-2.063,0.839-2.587,4.196-1.723,6.203c0.862,2.007,3.685,4.004,5.749,3.166c0.357-0.145,1.668-0.566,1.668-0.566
	c1.474,1.977,3.017,0.805,3.563,2.061c0.657,1.511,2.088,4.794,2.573,5.911c0.487,1.116,1.589,2.149,2.39,1.846
	c0.797-0.304,3.516-1.339,4.556-1.733c1.039-0.396,1.287-1.322,0.969-2.053c-0.342-0.788-1.747-1.02-2.146-1.938
	c-0.401-0.919-1.71-3.864-2.087-4.794c-0.512-1.262,0.576-2.289,2.156-2.453c10.874-1.134,12.906,5.582,16.609,4.076
	C42.652,29.887,42.068,21.586,38.551,13.398z M37.326,26.68c-0.637,0.26-4.916-3.116-7.651-9.481
	c-2.734-6.364-2.391-12.182-1.755-12.44c0.635-0.258,4.81,3.813,7.544,10.177C38.198,21.299,37.963,26.422,37.326,26.68z"/>
</svg>
