<?xml version="1.0" encoding="utf-8"?>
<!-- Generator: Adobe Illustrator 16.0.0, SVG Export Plug-In . SVG Version: 6.00 Build 0)  -->
<!DOCTYPE svg PUBLIC "-//W3C//DTD SVG 1.1//EN" "http://www.w3.org/Graphics/SVG/1.1/DTD/svg11.dtd">
<svg version="1.1" id="Layer_1" xmlns="http://www.w3.org/2000/svg" xmlns:xlink="http://www.w3.org/1999/xlink" x="0px" y="0px"
	 width="60px" height="50px" viewBox="0 0 60 50" enable-background="new 0 0 60 50" xml:space="preserve">
<path fill="#FFFFFF" d="M48.99,26.765c-0.832,0-1.6,0.46-1.989,1.195l-3.237,6.101l-3.99-11.687
	c-0.304-0.884-1.117-1.488-2.053-1.521c-0.961-0.027-1.789,0.516-2.153,1.376l-2.736,6.499L28.512,2.853
	c-0.199-1.087-1.218-1.913-2.262-1.847c-1.106,0.025-2.031,0.751-2.182,1.847l-3.814,30.03L17.16,16.765
	c-0.182-0.954-0.956-1.682-1.92-1.805c-0.946-0.127-1.897,0.38-2.317,1.257L7.862,26.765H0v4.497h9.279
	c0.866,0,1.653-0.494,2.028-1.277l2.721-5.668l4.387,22.857c0.203,1.063,1.133,1.825,2.209,1.825c0.02,0,0.04,0,0.061,0
	c1.102-0.029,2.02-0.852,2.17-1.944l3.755-29.508l3.147,19.431c0.178,0.978,0.979,1.725,1.966,1.832
	c1.002,0.098,1.935-0.443,2.32-1.364l3.381-8.023l3.763,11.015c0.289,0.847,1.057,1.444,1.949,1.515
	c0.896,0.05,1.746-0.396,2.168-1.189l5.039-9.497H60v-4.499H48.99z"/>
</svg>
