<?xml version="1.0" encoding="utf-8"?>
<!-- Generator: Adobe Illustrator 16.0.0, SVG Export Plug-In . SVG Version: 6.00 Build 0)  -->
<!DOCTYPE svg PUBLIC "-//W3C//DTD SVG 1.1//EN" "http://www.w3.org/Graphics/SVG/1.1/DTD/svg11.dtd">
<svg version="1.1" id="Layer_1" xmlns="http://www.w3.org/2000/svg" xmlns:xlink="http://www.w3.org/1999/xlink" x="0px" y="0px"
	 width="45px" height="40px" viewBox="0 0 45 40" enable-background="new 0 0 45 40" xml:space="preserve">
<g>
	<path fill="#FFFFFF" d="M38.652,20c0-2.494,1.535-4.463,3.848-5.816c-0.416-1.392-0.969-2.725-1.647-3.981
		c-2.593,0.679-4.69-0.337-6.454-2.101c-1.765-1.763-2.305-3.863-1.626-6.455C31.518,0.968,30.185,0.416,28.792,0
		c-1.354,2.312-3.798,3.847-6.292,3.847S17.562,2.312,16.208,0c-1.393,0.416-2.726,0.968-3.98,1.646
		c0.678,2.593,0.139,4.691-1.626,6.456c-1.764,1.764-3.862,2.78-6.455,2.102c-0.679,1.255-1.23,2.588-1.646,3.98
		C4.812,15.537,6.347,17.506,6.347,20S4.812,24.938,2.5,26.291c0.416,1.393,0.968,2.727,1.646,3.982
		c2.593-0.679,4.691-0.139,6.455,1.625s2.304,3.862,1.626,6.455c1.255,0.678,2.588,1.23,3.98,1.646
		c1.354-2.312,3.798-3.848,6.292-3.848s4.938,1.535,6.292,3.848c1.393-0.416,2.726-0.969,3.981-1.647
		c-0.679-2.592-0.14-4.69,1.625-6.454c1.764-1.764,3.862-2.78,6.454-2.102c0.679-1.256,1.231-2.589,1.647-3.981
		C40.188,24.463,38.652,22.494,38.652,20z M22.5,28.697c-4.804,0-8.697-3.894-8.697-8.697s3.894-8.698,8.697-8.698
		s8.697,3.894,8.697,8.698S27.304,28.697,22.5,28.697z"/>
</g>
</svg>
