<?xml version="1.0" encoding="utf-8"?>
<!-- Generator: Adobe Illustrator 16.0.0, SVG Export Plug-In . SVG Version: 6.00 Build 0)  -->
<!DOCTYPE svg PUBLIC "-//W3C//DTD SVG 1.1//EN" "http://www.w3.org/Graphics/SVG/1.1/DTD/svg11.dtd">
<svg version="1.1" id="Layer_1" xmlns="http://www.w3.org/2000/svg" xmlns:xlink="http://www.w3.org/1999/xlink" x="0px" y="0px"
	 width="50px" height="31.716px" viewBox="0 0 50 31.716" enable-background="new 0 0 50 31.716" xml:space="preserve">
<g>
	<g>
		<path fill="#FFFFFF" d="M37.87,13.523l0.724-0.021c-0.238-0.008-0.478-0.021-0.718-0.034
			C37.875,13.485,37.872,13.504,37.87,13.523z"/>
		<path fill="#FFFFFF" d="M50,7.577c0-0.332,0-1.109-9.684-6.042c0-0.016,0-0.029,0-0.044c0-0.906-0.34-1.49-0.863-1.49
			c-0.527,0-0.863,0.584-0.863,1.49c0,0.015,0,0.028,0,0.044c-9.686,4.933-9.686,5.71-9.686,6.042c0,0.214,0.002,0.842,1.985,1.535
			c-0.072,2.71,0.012,3.17,0.037,3.323l0.046,0.244l0.75,0.404l0.121,0.046c1.002,0.247,3.523,0.694,6.003,0.851l0.499,0.031
			l0.041-0.494c0-0.01,0.008-0.016,0.008-0.022c0.059,0.002,0.122,0.006,0.182,0.008l-0.002,0.514
			c0.311,0.013,0.617,0.021,0.922,0.021c0.622,0,1.346-0.039,2.091-0.1h0.011c2.782-0.235,5.982-0.81,6.257-1.089
			c0.196-0.193,0.216-0.223,0.177-3.742C50,8.417,50,7.79,50,7.577z M37.428,12.922c-2.202-0.17-4.339-0.547-5.277-0.772
			l-0.24-0.129c-0.023-0.333-0.041-1.053-0.002-2.598c0.032,0.009,0.072,0.019,0.106,0.027c0.086,0.021,0.179,0.043,0.262,0.064
			c0.189,0.04,0.382,0.089,0.58,0.132c0.099,0.021,0.198,0.042,0.301,0.063c0.198,0.038,0.405,0.078,0.612,0.112
			c0.101,0.019,0.198,0.036,0.304,0.05c0.237,0.04,0.49,0.074,0.739,0.11c0.071,0.009,0.141,0.021,0.213,0.029
			c0.325,0.042,0.653,0.077,0.989,0.111c0.077,0.005,0.159,0.01,0.236,0.017c0.257,0.022,0.52,0.043,0.785,0.062
			c0.125,0.007,0.249,0.012,0.373,0.021c0.223,0.01,0.45,0.023,0.678,0.03c0.138,0.005,0.272,0.009,0.41,0.016
			c0.085,0,0.171,0.004,0.256,0.005C38.116,10.676,37.629,11.637,37.428,12.922z M47.007,12.088
			c-0.812,0.188-3.155,0.641-5.524,0.834c-0.2-1.285-0.688-2.247-1.327-2.648c0.087-0.001,0.176-0.005,0.259-0.005
			c0.14-0.007,0.274-0.012,0.405-0.016c0.229-0.007,0.46-0.02,0.688-0.03c0.124-0.01,0.248-0.015,0.37-0.021
			c0.266-0.019,0.527-0.04,0.785-0.062c0.082-0.007,0.161-0.012,0.241-0.017c0.336-0.036,0.668-0.071,0.988-0.112
			c0.082-0.01,0.168-0.023,0.246-0.034c0.239-0.034,0.476-0.066,0.704-0.106c0.109-0.015,0.218-0.035,0.325-0.054
			c0.198-0.034,0.395-0.071,0.588-0.108c0.111-0.022,0.216-0.045,0.32-0.066c0.192-0.042,0.378-0.087,0.561-0.129
			c0.094-0.023,0.188-0.045,0.272-0.07c0.037-0.004,0.07-0.015,0.099-0.022C47.021,10.995,47.02,11.74,47.007,12.088z"/>
		<path fill="#FFFFFF" d="M8.967,13.546l0.724-0.021c-0.238-0.007-0.479-0.021-0.715-0.034C8.969,13.509,8.968,13.527,8.967,13.546z
			"/>
		<path fill="#FFFFFF" d="M21.098,7.599c0-0.331-0.001-1.108-9.688-6.042c0-0.018,0-0.028,0-0.046c0-0.905-0.335-1.489-0.861-1.489
			c-0.524,0-0.864,0.584-0.864,1.489c0,0.018,0,0.029,0,0.046C0,6.491,0,7.268,0,7.599c0,0.215,0.002,0.843,1.985,1.536
			c-0.097,3.478,0.033,3.582,0.276,3.771c0.39,0.303,3.91,0.928,6.68,1.092l0.497,0.035l0.05-0.493c0-0.011,0-0.018,0-0.023
			c0.061,0.002,0.124,0.005,0.185,0.007l-0.002,0.514c0.311,0.009,0.616,0.021,0.921,0.021c0.622,0,1.344-0.039,2.096-0.101h0.006
			c2.778-0.234,5.979-0.808,6.259-1.089c0.193-0.191,0.215-0.224,0.18-3.741C21.095,8.438,21.098,7.813,21.098,7.599z M8.525,12.944
			c-2.5-0.193-4.81-0.641-5.515-0.832c-0.023-0.288-0.048-0.985-0.007-2.666c0.038,0.009,0.077,0.019,0.115,0.027
			C3.197,9.495,3.278,9.515,3.36,9.537c0.196,0.048,0.396,0.089,0.602,0.134c0.093,0.02,0.187,0.041,0.281,0.061
			c0.209,0.038,0.425,0.08,0.643,0.116c0.092,0.016,0.177,0.033,0.271,0.045c0.262,0.044,0.529,0.083,0.801,0.118
			c0.051,0.006,0.101,0.016,0.151,0.022c0.334,0.042,0.674,0.079,1.019,0.108c0.048,0.009,0.097,0.011,0.145,0.015
			c0.291,0.026,0.586,0.049,0.884,0.069c0.101,0.006,0.202,0.011,0.308,0.013c0.249,0.017,0.499,0.03,0.749,0.038
			c0.118,0.004,0.233,0.009,0.351,0.01c0.097,0.001,0.187,0.01,0.284,0.011C9.213,10.699,8.725,11.654,8.525,12.944z M18.108,12.111
			c-0.817,0.189-3.162,0.642-5.527,0.833c-0.201-1.291-0.69-2.245-1.328-2.647c0.1-0.001,0.198-0.01,0.297-0.011
			c0.112-0.003,0.22-0.005,0.332-0.01c0.259-0.008,0.519-0.021,0.773-0.038c0.104-0.004,0.202-0.008,0.3-0.013
			c0.304-0.021,0.61-0.043,0.91-0.071c0.035-0.004,0.078-0.007,0.118-0.013c0.348-0.032,0.689-0.067,1.024-0.11
			c0.052-0.007,0.103-0.017,0.152-0.022c0.272-0.033,0.54-0.075,0.804-0.118c0.085-0.013,0.179-0.031,0.269-0.047
			c0.221-0.037,0.437-0.078,0.646-0.121c0.095-0.022,0.188-0.036,0.279-0.056c0.209-0.045,0.414-0.094,0.613-0.143
			c0.076-0.02,0.154-0.035,0.229-0.056c0.037-0.012,0.073-0.019,0.109-0.026C18.121,11.026,18.116,11.765,18.108,12.111z"/>
		<path fill="#FFFFFF" d="M31.477,12.477c0.041,0.038,0.218,0.088,0.488,0.154c-0.179-0.097-0.357-0.195-0.535-0.285
			C31.443,12.419,31.461,12.466,31.477,12.477z"/>
		<path fill="#FFFFFF" d="M22.407,30.783l1.275-0.037c-0.42-0.013-0.847-0.035-1.266-0.062
			C22.414,30.717,22.41,30.746,22.407,30.783z"/>
		<path fill="#FFFFFF" d="M44.539,19.937c0-0.769,0-1.635-12.132-8.128c-0.065-0.039-0.14-0.066-0.214-0.085
			c-0.032-0.006-0.059-0.012-0.083-0.021c-0.069-0.074-0.15-0.134-0.241-0.183c-2.2-1.172-4.101-2.153-4.997-2.614
			c0-0.027,0-0.053,0-0.084c0-1.65-0.621-2.717-1.58-2.717s-1.581,1.067-1.581,2.717c0,0.031,0,0.057,0,0.084
			c-1.327,0.682-4.846,2.5-8.328,4.416c-9.344,5.132-9.344,5.886-9.344,6.61c0,0.396,0.009,1.533,3.628,2.801
			c-0.173,6.36,0.055,6.538,0.492,6.878c0.713,0.562,7.146,1.692,12.201,2.007l0.905,0.056l0.082-0.902
			c0.001-0.014,0.008-0.026,0.008-0.039c0.099,0.004,0.198,0.011,0.297,0.014l-0.004,0.938c0.579,0.023,1.155,0.033,1.72,0.033
			c1.129,0,2.438-0.068,3.802-0.18l0.035-0.002v-0.007c5.068-0.422,10.908-1.47,11.421-1.98c0.351-0.348,0.39-0.389,0.324-6.825
			C44.534,21.461,44.539,20.321,44.539,19.937z M21.6,29.688c-4.562-0.348-8.778-1.172-10.061-1.52
			c-0.044-0.526-0.09-1.8-0.016-4.863c0.033,0.008,0.078,0.015,0.117,0.026c0.371,0.098,0.754,0.188,1.147,0.28
			c0.069,0.016,0.136,0.028,0.206,0.045c0.384,0.089,0.776,0.166,1.182,0.241c0.04,0.009,0.085,0.019,0.131,0.026
			c0.433,0.08,0.875,0.154,1.324,0.224c0.085,0.016,0.167,0.027,0.254,0.041c0.451,0.071,0.915,0.134,1.385,0.193
			c0.048,0.007,0.097,0.01,0.145,0.015c0.476,0.061,0.961,0.113,1.449,0.161c0.029,0.003,0.061,0.006,0.098,0.009
			c0.502,0.049,1.015,0.091,1.531,0.124c0.066,0.01,0.132,0.013,0.194,0.018c0.529,0.031,1.062,0.066,1.6,0.09
			C22.291,24.8,22.295,24.8,22.3,24.8c0.557,0.024,1.116,0.039,1.68,0.052c0.015,0,0.025,0.001,0.041,0.001
			C22.855,25.587,21.967,27.336,21.6,29.688z M39.085,28.158c-1.489,0.351-5.767,1.179-10.085,1.527
			c-0.368-2.357-1.264-4.099-2.429-4.833c0.02-0.001,0.039-0.002,0.06-0.002c0.558-0.012,1.111-0.027,1.663-0.052
			c0.004,0,0.009,0,0.011-0.001c0.547-0.023,1.083-0.058,1.612-0.093c0.062-0.002,0.118-0.005,0.18-0.014
			c0.525-0.035,1.05-0.077,1.565-0.128c0.012,0,0.025-0.002,0.043-0.003c0.515-0.05,1.024-0.104,1.521-0.169
			c0.028-0.003,0.059-0.007,0.092-0.01c0.488-0.062,0.966-0.131,1.44-0.196c0.061-0.016,0.124-0.022,0.185-0.035
			c0.475-0.074,0.938-0.152,1.388-0.239c0.014,0,0.018-0.003,0.023-0.003c0.447-0.083,0.884-0.175,1.313-0.27
			c0.043-0.009,0.086-0.021,0.128-0.028c0.419-0.095,0.825-0.195,1.217-0.299c0.023-0.006,0.05-0.012,0.074-0.019
			C39.11,26.182,39.097,27.534,39.085,28.158z"/>
	</g>
</g>
</svg>
